<svg width="26" height="27" viewBox="0 0 26 27" fill="none" xmlns="http://www.w3.org/2000/svg">
<g id="basil:upload-solid">
<path id="Vector" fill-rule="evenodd" clip-rule="evenodd" d="M5.4165 18.4543C5.63199 18.4543 5.83865 18.5399 5.99103 18.6923C6.1434 18.8447 6.229 19.0513 6.229 19.2668V21.4335C6.229 21.583 6.35034 21.7043 6.49984 21.7043H19.4998C19.5717 21.7043 19.6406 21.6758 19.6913 21.625C19.7421 21.5742 19.7707 21.5053 19.7707 21.4335V19.2668C19.7707 19.0513 19.8563 18.8447 20.0086 18.6923C20.161 18.5399 20.3677 18.4543 20.5832 18.4543C20.7987 18.4543 21.0053 18.5399 21.1577 18.6923C21.3101 18.8447 21.3957 19.0513 21.3957 19.2668V21.4335C21.3957 21.9363 21.1959 22.4185 20.8404 22.7741C20.4849 23.1296 20.0026 23.3293 19.4998 23.3293H6.49984C5.99703 23.3293 5.51482 23.1296 5.15928 22.7741C4.80374 22.4185 4.604 21.9363 4.604 21.4335V19.2668C4.604 19.0513 4.68961 18.8447 4.84198 18.6923C4.99435 18.5399 5.20102 18.4543 5.4165 18.4543ZM11.6327 18.3211C11.3637 18.3218 11.1042 18.2214 10.9058 18.0398C10.7073 17.8582 10.5843 17.6087 10.5613 17.3407C10.3967 15.4421 10.3677 13.5342 10.4746 11.6315C10.2069 11.6165 9.93926 11.5992 9.67184 11.5795L8.05767 11.4614C7.91551 11.451 7.77849 11.4039 7.66002 11.3246C7.54155 11.2453 7.44568 11.1367 7.38181 11.0092C7.31793 10.8818 7.28823 10.74 7.29561 10.5976C7.30299 10.4553 7.34721 10.3173 7.42392 10.1972C8.57524 8.39726 10.0574 6.832 11.7919 5.58434L12.4387 5.11959C12.6023 5.00244 12.7986 4.93945 12.9998 4.93945C13.2011 4.93945 13.3973 5.00244 13.561 5.11959L14.2078 5.58542C15.9422 6.83277 17.4243 8.39765 18.5758 10.1972C18.6525 10.3173 18.6967 10.4553 18.7041 10.5976C18.7114 10.74 18.6817 10.8818 18.6179 11.0092C18.554 11.1367 18.4581 11.2453 18.3397 11.3246C18.2212 11.4039 18.0842 11.451 17.942 11.4614L16.3278 11.5795C16.0606 11.599 15.7934 11.616 15.5262 11.6304C15.6345 13.5338 15.6042 15.4416 15.4373 17.3396C15.4145 17.6076 15.2918 17.8573 15.0936 18.0391C14.8953 18.2208 14.636 18.3215 14.367 18.3211H11.6327Z" fill="#2E2E2E"/>
</g>
</svg>
