<svg width="18" height="23" viewBox="0 0 18 23" fill="none" xmlns="http://www.w3.org/2000/svg">
<g id="Group">
<path id="Vector" d="M9 0.850098C11.3869 0.850098 13.6761 1.79831 15.364 3.48614C17.0518 5.17396 18 7.46315 18 9.8501C18 12.9241 16.324 15.4401 14.558 17.2451C13.6757 18.1372 12.7129 18.9459 11.682 19.6611L11.256 19.9511L11.056 20.0841L10.679 20.3241L10.343 20.5291L9.927 20.7711C9.64463 20.9323 9.32513 21.017 9 21.017C8.67487 21.017 8.35537 20.9323 8.073 20.7711L7.657 20.5291L7.137 20.2091L6.945 20.0841L6.535 19.8111C5.42283 19.0586 4.3869 18.1992 3.442 17.2451C1.676 15.4391 0 12.9241 0 9.8501C0 7.46315 0.948211 5.17396 2.63604 3.48614C4.32387 1.79831 6.61305 0.850098 9 0.850098ZM9 6.8501C8.60603 6.8501 8.21593 6.92769 7.85195 7.07846C7.48797 7.22922 7.15726 7.4502 6.87868 7.72878C6.6001 8.00735 6.37913 8.33807 6.22836 8.70205C6.0776 9.06602 6 9.45613 6 9.8501C6 10.2441 6.0776 10.6342 6.22836 10.9981C6.37913 11.3621 6.6001 11.6928 6.87868 11.9714C7.15726 12.25 7.48797 12.471 7.85195 12.6217C8.21593 12.7725 8.60603 12.8501 9 12.8501C9.79565 12.8501 10.5587 12.534 11.1213 11.9714C11.6839 11.4088 12 10.6457 12 9.8501C12 9.05445 11.6839 8.29139 11.1213 7.72878C10.5587 7.16617 9.79565 6.8501 9 6.8501Z" fill="white"/>
</g>
</svg>
