<svg width="24" height="25" viewBox="0 0 24 25" fill="none" xmlns="http://www.w3.org/2000/svg">
<g id="ic:round-email">
<path id="Vector" d="M20 4.8501H4C2.9 4.8501 2.01 5.7501 2.01 6.8501L2 18.8501C2 19.9501 2.9 20.8501 4 20.8501H20C21.1 20.8501 22 19.9501 22 18.8501V6.8501C22 5.7501 21.1 4.8501 20 4.8501ZM19.6 9.1001L12.53 13.5201C12.21 13.7201 11.79 13.7201 11.47 13.5201L4.4 9.1001C4.29973 9.04381 4.21192 8.96776 4.14189 8.87655C4.07186 8.78534 4.02106 8.68088 3.99258 8.56947C3.96409 8.45806 3.9585 8.34203 3.97616 8.2284C3.99381 8.11478 4.03434 8.00591 4.09528 7.9084C4.15623 7.81089 4.23632 7.72675 4.33073 7.66109C4.42513 7.59543 4.53187 7.54961 4.6445 7.5264C4.75712 7.50318 4.87328 7.50306 4.98595 7.52605C5.09863 7.54903 5.20546 7.59463 5.3 7.6601L12 11.8501L18.7 7.6601C18.7945 7.59463 18.9014 7.54903 19.014 7.52605C19.1267 7.50306 19.2429 7.50318 19.3555 7.5264C19.4681 7.54961 19.5749 7.59543 19.6693 7.66109C19.7637 7.72675 19.8438 7.81089 19.9047 7.9084C19.9657 8.00591 20.0062 8.11478 20.0238 8.2284C20.0415 8.34203 20.0359 8.45806 20.0074 8.56947C19.9789 8.68088 19.9281 8.78534 19.8581 8.87655C19.7881 8.96776 19.7003 9.04381 19.6 9.1001Z" fill="white"/>
</g>
</svg>
