<svg width="24" height="25" viewBox="0 0 24 25" fill="none" xmlns="http://www.w3.org/2000/svg">
<g id="mingcute:phone-fill">
<g id="Group">
<path id="Vector" fill-rule="evenodd" clip-rule="evenodd" d="M16.552 22.9831C15.112 22.9301 11.031 22.3661 6.757 18.0931C2.484 13.8191 1.921 9.73907 1.867 8.29807C1.787 6.10207 3.469 3.96907 5.412 3.13607C5.64598 3.03504 5.9022 2.99657 6.15553 3.02444C6.40886 3.05232 6.65059 3.14558 6.857 3.29507C8.457 4.46107 9.561 6.22507 10.509 7.61207C10.7176 7.9168 10.8068 8.28762 10.7596 8.65387C10.7123 9.02011 10.532 9.3562 10.253 9.59807L8.302 11.0471C8.20774 11.1151 8.14139 11.2151 8.11528 11.3284C8.08916 11.4417 8.10505 11.5606 8.16 11.6631C8.602 12.4661 9.388 13.6621 10.288 14.5621C11.188 15.4621 12.441 16.3001 13.3 16.7921C13.4077 16.8525 13.5345 16.8694 13.6543 16.8393C13.774 16.8092 13.8777 16.7343 13.944 16.6301L15.214 14.6971C15.4475 14.3869 15.7919 14.1791 16.1752 14.1173C16.5584 14.0554 16.9508 14.1442 17.27 14.3651C18.677 15.3391 20.319 16.4241 21.521 17.9631C21.6826 18.171 21.7854 18.4185 21.8187 18.6797C21.8519 18.9409 21.8144 19.2063 21.71 19.4481C20.873 21.4011 18.755 23.0641 16.552 22.9831Z" fill="white"/>
</g>
</g>
</svg>
