<?xml version="1.0" encoding="UTF-8"?>
<svg id="Capa_3" data-name="Capa 3" xmlns="http://www.w3.org/2000/svg" viewBox="0 0 250 100">
  <defs>
    <style>
      .cls-1 {
        fill: #fff;
      }
    </style>
  </defs>
  <rect width="250" height="100"/>
  <g>
    <g>
      <path class="cls-1" d="M69.85,14.49l-.46,2.9c.04.62,2.37,2.03,2.93,2.08,1.04.09,2.24-2.23,3-2.23.65.63,2.76,1.42,2.62,2.35-.3,1.98-2.79,2.45.42,4.74,1.44,1.03,1.97-.4,3.41-.66,1.15-.21,1.89,1.58,2.28,2.57-1.27,2.08-3,1.88-1.26,4.55,1.25,1.91,2.36.2,4.08.79l1.24,3.38-3.18,1.53c-.1.2.13,2.24.21,2.6.29,1.34,2.6.78,3.63,1.43l.11,3.56-3.48.57-.53,3.45,3.14,1.55c-.31.78-.61,3.48-1.51,3.54-.78.05-2.12-.67-3.02-.46-.44.15-1.72,2.42-1.59,3.02.14.68,2.32,1.73,2.19,2.63-.02.2-1.44,2.3-1.65,2.44-.88.57-2.41-1.78-4.17-.65-2.74,1.77-.91,2.92-.29,5.15l-2.9,2.04-2.57-2.49-3.34,1.65.69,2.8c.04.84-2.75.92-3.38,1.52-.79-.06-1.31-2.26-1.71-2.65-.72-.7-2.72.33-3.7.22-.19.16-.42,2.38-.59,2.83-.28.77-2.99.4-3.77.32l-.54-2.87-3.96-.52-1.21,2.51c-.54.15-3.77-.77-3.87-1.18,1.36-3.15-.32-3.52-2.93-4.42l-2.43,1.94-2.5-1.84,1.21-2.71c-.04-.18-2.39-2.58-2.61-2.71-1.12-.65-2.06.85-3.25.74-2.1-2.07-2.7-2.63.1-4.44l-1.53-3.51-3.28.39-1.02-3.53,2.73-1.33c.18-.3-.1-2.62-.21-3.1-.32-1.4-2.18-.85-3.17-1.39-.17-.24-.19-2.51-.11-2.93.19-1.03,2.41-.54,3.23-1.2.63-2.67,1.39-4.16-1.94-4.78-.43-.6.79-3.04,1.22-3.65.38-.23,2.42,1.09,3.28-.02.24-.31,1.36-2.67,1.27-2.97-3.15-2.17-1.87-2.49.02-4.87l2.69,1.16c.67.03,3.06-1.97,3.06-2.66-.2-.63-.76-1.09-.99-1.71-.67-1.82,1.25-1.47,2.26-2.69.83-.22,1.77,1.69,2.76,1.74.42.02,2.34-.77,2.73-1.04,1.4-.94-.46-3.04.3-3.54l3.25-.95,1.68,2.63,3.75-.43.58-3.21c.14-.09,2.27-.09,2.64-.05,1.83.21.65,2.53,1.5,3.31l3.36.57,1.99-2.82,3.11,1.01ZM64.31,19.52l-4.55-.5-.77,6.57,4.56.51c.34-1.67-1.52-1.31-2.66-1.53-.34-.06-.44.19-.37-.36.03-.23.2-1.12.4-1.17l2.88.27c.34-1.64-1.61-1.46-2.79-1.52-.01-.64-.16-1.47.63-1.53.67-.05,1.82.53,2.66.26v-1.01ZM57.98,25.59l-.62-1.18-2.43.56-1.12-4.96-1.66-.24,1.28,6.56,4.54-.74ZM70.13,25.6c1.08.16,2.33-.95,1.98-2.1s-2.89-2.11-3.85-2.69l-3.39,5.69,1.3.64,1.17-1.94c.37-.24,1.65.36,1.69.77l-.91,2.26,1.38.9c.29-.02,1.33-3.01.63-3.54ZM46.81,22.57c-.28-.2-1.56.28-1.47.83l3.26,5.37.34.09,3.35-2-.3-1.03-2.63,1.17-2.55-4.43ZM75.92,27.65c.45.27,1.37,2.99,2.55,1.36l-2.91-3.42-5.18,4.18,2.95,3.39.83-.83c-.37-.68-1.9-1.48-1.77-2.29l1.38-.64c.44.13,1.11,2.06,1.93,1.65,1.33-.66-1.02-1.85-1.02-2.54,0-.52.79-1.11,1.24-.85ZM45.11,30.19c.23-.14,2.79.65,2.49-.67-.08-.33-5.64-2.38-6.23-2.41-.63-.03-1.03.42-1.33.94-.3,1.1,2.91,4.79,3.26,6.14l1.15-.75-.62-1.6,1.29-1.65ZM36.96,35.97c.34-.31,4.33,1.6,5.19,1.53.65-.05.59-.69.86-1.16l-5.19-1.88-.12-.39c1.04-1.02-.01-2.72-.8-1.33-.67,1.19-.81,3.17-1.71,4.36l1.49.35.28-1.49ZM80.2,34.52c.93.95-1.22,2.44.45,2.98,2.66-1.32-.15-5.94-2.49-4.52-1.29.78-.02,4.76-1.53,4.5-2.02-1.45.2-2.16-.41-3.78-3.68.61-.93,6.77,2.29,4.69.77-.93.08-2.74.28-3.49.18-.65.95-.85,1.41-.37ZM57.4,35.53c-7.32,1.11-7.4,11.62-.51,12.79,10.79,1.83,10.68-14.32.51-12.79ZM74.87,45.14c-3.43.71-3.4,7.05.96,7.29,4.89.27,5.2-8.57-.96-7.29ZM43.01,45.61c-.46-.33-6.27,1.3-7.32.87-.12-.05-.9-1.09-1.02-.25-.06.45.66,1.27,1.08,1.45,1.81.77,5.73-.7,7.79-.57l-.53-1.5ZM37.89,50.43c-1.17.29-.61,1.89.42,1.7s.68-1.98-.42-1.7ZM72.16,52.67c-.25-1.9-2.36-.18-3.03.64-3.16,3.81,1.7,8.24,5.41,4.65.19-.19,1.37-1.79,1.39-1.92-.12-.5-1.89-2.33-2.23-2.09l-.78,1.12c3.26,1.59.17,4.05-2.15,2.41s-1.67-4.9,1.39-4.81ZM49.58,55.5c-.5-.16-.92-.81-1.37-.32-.7.95-1.17,2.04-1.78,3.04-.34.56-1.49,1.86-1.62,2.18-.18.43.18.34.32.43.89.55,1.79,1.1,2.7,1.61l.77-.52-1.76-.89c-.51-.71,3.19-4.76,2.74-5.52ZM61.78,59.77l5.3,2.93c.32.22.67,0,.76-.31.1-.34-1.59-6.03-1.88-6.17-.09-.04-.64-.09-.63.13l1.27,4.17c-.32.33-4.96-3.3-6.08-2.78l1.57,6.15c.23.65,1.19.73,1.03-.26-.1-.62-1.47-3.72-1.33-3.86ZM52.26,58.85c-3.94,6.12,7.72,8.35,6.71,1.32-.43-2.98-5.25-3.58-6.71-1.32Z"/>
      <path class="cls-1" d="M34.42,62.55l-3.95-1.75c-.69-.83-.36-2.5-.65-3.4-.23-.73-2.82-.41-3.53-.31l-.87,3.69-3.3,1.39c-1.23.25-2.38-1.34-3.22-1.71-1.23-.54-2.08,1.28-2.95,2l1.97,3.06c.07.43-1,3.04-1.27,3.44-.58.86-3.25.89-4.26.93l-.23,3.14c.23.75,3.49.53,4.23.97l1.26,3.57-2.2,3.33c.68.49,1.94,2.28,2.78,2.05.7-.2,1.8-1.45,2.47-1.62,1.25-.31,2.83,1.01,4.06,1.27.74,3.34.13,4.8,4.33,3.72l.58-3.34c1.46-.95,3.2-2.16,4.93-1.24,2.53,1.34,2.2,2.58,4.64-.84l-1.97-3.07c.25-1,1.09-3.3,2.03-3.7.85-.36,2.22-.23,3.12-.67,1.31-.64.14-2.11.34-3.3-1.13-.34-3.46,0-4.15-1.04-.48-.72-.79-2.55-1.4-3.4l1.01-.38,1.38,3.31,3.97.84.2,4.68-4.28.91c-.14.09-1.12,1.93-1.16,2.15-.25,1.2,2.12,2.56,1.93,3.91-.07.49-2.7,3.12-3.19,3.19-1.06.15-2.46-1.67-3.57-1.97l-3.08,1.38c-.3.87-.19,3.43-1.19,3.62-.78.15-3.59.42-4.18.13-.86-.53-.63-3.64-1.06-4.13-.85,0-1.74-.91-2.42-1.02-1.32-.21-3.01,2.36-4.11,1.87-.27-.12-3.03-2.76-3.06-3.06-.08-.84,2.01-2.62,2.18-3.38.03-.14-.79-2.48-.92-2.66-.58-.79-4.14-.39-4.29-1.08l.13-4.39c.4-.8,3.4-.82,4.27-1.24l1.14-2.24c.21-1.09-2.5-2.72-1.86-4.1.16-.34,2.72-2.77,3.05-2.8,1.26-.04,2.48,1.67,3.56,1.78.65.07,2.85-.62,3.09-1.19.43-1.03.08-3.6,1.45-3.86.65-.12,3.97.02,4.31.49l.49,3.56,3.43,1.65v.88Z"/>
      <path d="M57.4,35.53c10.18-1.54,10.28,14.62-.51,12.79-6.89-1.17-6.82-11.68.51-12.79Z"/>
    </g>
    <g>
      <path class="cls-1" d="M104.38,30.89h-5.17v-1.89h12.41v1.89h-5.14v12.81h-2.1v-12.81Z"/>
      <path class="cls-1" d="M117.4,29h2.62l5.98,14.7h-2.25l-1.41-3.57h-7.41l-1.43,3.57h-2.14l6.03-14.7ZM121.62,38.3l-2.96-7.5-2.98,7.5h5.94Z"/>
      <path class="cls-1" d="M128.64,29h2.1v12.85h7.54v1.85h-9.64v-14.7Z"/>
      <path class="cls-1" d="M140.77,29h2.1v12.85h7.54v1.85h-9.64v-14.7Z"/>
      <path class="cls-1" d="M152.91,29h11.09v1.81h-8.99v4.47h7.89v1.81h-7.89v4.81h8.99v1.81h-11.09v-14.7Z"/>
      <path class="cls-1" d="M167.55,29h6.11c2.71,0,5.96,1.18,5.96,5.02,0,2.39-1.34,3.93-3.07,4.66l3.17,5.02h-2.46l-2.77-4.54c-.19.02-.38.02-.57.02h-4.28v4.51h-2.1v-14.7ZM173.43,37.38c2.5,0,3.97-1.22,3.97-3.32s-1.47-3.25-3.97-3.25h-3.78v6.57h3.78Z"/>
      <path class="cls-1" d="M182.39,29h11.09v1.81h-8.99v4.47h7.89v1.81h-7.89v4.81h8.99v1.81h-11.09v-14.7Z"/>
      <path class="cls-1" d="M196.28,42.94v-1.85c1.3.63,3,.99,4.77.99,2.22,0,3.86-.94,3.86-2.37,0-1.66-1.74-2.23-3.55-2.81-2.41-.8-4.83-1.51-4.83-4.37s2.75-3.74,5.48-3.74c1.6,0,3.13.34,4.07.69v1.76c-1.47-.42-2.67-.67-4.05-.67-2.06,0-3.32.63-3.32,1.85,0,1.3,1.26,1.85,3.09,2.46,2.37.78,5.29,1.62,5.29,4.64s-2.92,4.39-5.9,4.39c-2.06,0-3.97-.48-4.91-.97Z"/>
      <path class="cls-1" d="M99.01,68.61l-.02-2.88c.71.21,1.22.32,1.85.32,1.26,0,1.66-.82,1.66-2.04l-.02-9.81h3.78v10.33c0,2.83-1.68,4.58-4.28,4.58-1.09,0-2.08-.19-2.96-.5Z"/>
      <path class="cls-1" d="M107.95,67.24c0-1.11.78-1.93,2.06-1.93s2.02.82,2.02,1.93-.76,1.95-2.02,1.95-2.06-.82-2.06-1.95Z"/>
      <path class="cls-1" d="M114.02,54.2h3.78v11.3h6.7v3.4h-10.48v-14.7Z"/>
      <path class="cls-1" d="M125.04,61.55c0-4.35,3.09-7.56,8.08-7.56s8.08,3.21,8.08,7.56-3.07,7.56-8.08,7.56-8.08-3.23-8.08-7.56ZM133.13,65.69c2.58,0,4.22-1.81,4.22-4.14s-1.64-4.16-4.22-4.16-4.2,1.83-4.2,4.16,1.62,4.14,4.2,4.14Z"/>
      <path class="cls-1" d="M143.42,54.2h4.72l5.94,9.74v-9.74h3.67v14.7h-4.58l-6.09-10.1v10.1h-3.67v-14.7Z"/>
      <path class="cls-1" d="M159.97,61.55c0-4.7,3.28-7.56,8.04-7.56,1.24,0,2.86.1,4.56.88v3.19c-1.58-.74-2.77-.92-4.03-.92-2.98,0-4.62,1.74-4.62,4.41,0,2.52,1.62,4.28,4.54,4.28.8,0,1.53-.15,2.1-.53l-.55-4.22h3.72v6.34c-1.72,1.24-3.55,1.68-5.58,1.68-5.04,0-8.17-2.86-8.17-7.56Z"/>
      <path class="cls-1" d="M175.49,61.55c0-4.35,3.09-7.56,8.08-7.56s8.08,3.21,8.08,7.56-3.06,7.56-8.08,7.56-8.08-3.23-8.08-7.56ZM183.57,65.69c2.58,0,4.22-1.81,4.22-4.14s-1.64-4.16-4.22-4.16-4.2,1.83-4.2,4.16,1.62,4.14,4.2,4.14Z"/>
      <path class="cls-1" d="M192.6,65.62h3.21c.13,3.46-.94,5.14-1.7,6.03h-2.08c.67-1.72.94-4.2.57-6.03Z"/>
      <path class="cls-1" d="M202.6,68.17v-3c1.3.57,3.13.88,4.68.88,2.14,0,3.15-.48,3.15-1.49,0-1.07-1.3-1.36-2.79-1.68-2.96-.63-4.91-1.53-4.91-4.41,0-3.59,3.04-4.47,6.09-4.47,1.68,0,3.28.27,4.41.63v3.02c-1.34-.4-2.65-.63-3.95-.63-1.85,0-2.69.36-2.69,1.22,0,1.01,1.07,1.26,2.92,1.68,2.67.61,4.79,1.43,4.79,4.41,0,3.65-3.17,4.79-6.57,4.79-2.22,0-4.09-.48-5.12-.94Z"/>
      <path class="cls-1" d="M215.41,67.24c0-1.11.78-1.93,2.06-1.93s2.02.82,2.02,1.93-.76,1.95-2.02,1.95-2.06-.82-2.06-1.95Z"/>
      <path class="cls-1" d="M221.48,54.2h3.78v11.3h6.7v3.4h-10.48v-14.7Z"/>
      <path class="cls-1" d="M233.53,67.24c0-1.11.78-1.93,2.06-1.93s2.02.82,2.02,1.93-.76,1.95-2.02,1.95-2.06-.82-2.06-1.95Z"/>
    </g>
  </g>
</svg>